<?xml version="1.0" encoding="iso-8859-1"?>
<!-- Generator: Adobe Illustrator 19.0.0, SVG Export Plug-In . SVG Version: 6.00 Build 0)  -->
<svg version="1.1" id="Layer_1" xmlns="http://www.w3.org/2000/svg" xmlns:xlink="http://www.w3.org/1999/xlink" x="0px" y="0px"
	 viewBox="0 0 512 512" style="enable-background:new 0 0 512 512;" xml:space="preserve">
<path style="fill:#FEE187;" d="M338.488,74.593c0-19.11-15.492-34.601-34.601-34.601c-4.897,0-9.555,1.024-13.776,2.859
	c-2.758-16.351-16.975-28.81-34.11-28.81c-17.135,0-31.352,12.458-34.11,28.81c-4.222-1.835-8.879-2.859-13.776-2.859
	c-19.11,0-34.601,15.492-34.601,34.601c0,17.171,12.511,31.414,28.913,34.128c-5.271,6.072-8.468,13.993-8.468,22.664
	c0,19.11,15.492,34.601,34.601,34.601c11.18,0,21.115-5.307,27.441-13.535c6.325,8.228,16.262,13.535,27.441,13.535
	c19.11,0,34.601-15.492,34.601-34.601c0-8.671-3.197-16.592-8.468-22.664C325.977,106.007,338.488,91.764,338.488,74.593z"/>
<path style="fill:#FFC61B;" d="M332.083,131.385c0-5.286-0.862-10.494-2.516-15.43c13.952-8.624,22.96-24.012,22.96-41.362
	c0-26.821-21.822-48.642-48.642-48.642c-1.581,0-3.152,0.074-4.709,0.225C291.019,10.414,274.63,0,256.001,0
	c-18.629,0-35.02,10.414-43.177,26.176c-1.557-0.15-3.128-0.225-4.709-0.225c-26.821,0-48.642,21.822-48.642,48.642
	c0,17.351,9.01,32.738,22.96,41.362c-1.653,4.937-2.516,10.144-2.516,15.43c0,7.944,1.926,15.442,5.317,22.07
	c-11.192,14.363-16.861,32.306-16.861,53.517c0,12.504,0.56,26.379,1.668,41.255c1.066,14.106,2.617,29.02,4.611,44.31
	c2.245,17.361,5.098,35.529,8.482,53.997c2.62,14.31,5.62,29.137,8.921,44.08c6.683,30.132,14.603,60.813,23.544,91.19
	C220.998,500.148,236.857,512,256.005,512c0.004,0,0.008,0,0.013,0c19.137-0.004,34.983-11.854,40.366-30.183
	c12.604-42.828,22.972-85.349,30.813-126.382c1.456-7.616-3.54-14.971-11.155-16.426c-7.613-1.452-14.97,3.538-16.426,11.155
	c-7.672,40.142-17.823,81.769-30.173,123.731c-2.731,9.298-10.971,10.022-13.432,10.022c-0.001,0-0.001,0-0.001,0
	c-2.473,0-10.728-0.726-13.469-10.043c-8.761-29.77-16.523-59.829-23.066-89.331c-3.225-14.601-6.158-29.092-8.716-43.069
	c-0.067-0.366-0.126-0.727-0.194-1.092h32.8c7.755,0,14.04-6.286,14.04-14.04c0-7.755-6.286-14.04-14.04-14.04h-37.526
	c-1.224-7.92-2.35-15.739-3.337-23.382c-0.622-4.767-1.181-9.47-1.712-14.139h42.575c7.755,0,14.04-6.286,14.04-14.04
	s-6.286-14.04-14.04-14.04h-45.272c-0.014-0.19-0.034-0.386-0.048-0.574c-1.054-14.171-1.589-27.345-1.589-39.156
	c0-13.215,2.846-24.107,8.629-33.002c6.965,3.855,14.967,6.057,23.476,6.057c9.987,0,19.473-2.984,27.441-8.45
	c7.968,5.466,17.455,8.45,27.441,8.45c8.51,0,16.513-2.203,23.48-6.06c5.78,8.888,8.625,19.78,8.625,33.005
	c0,23.217-2.088,51.558-6.036,81.958c-0.998,7.69,4.424,14.733,12.114,15.732c0.614,0.08,1.223,0.118,1.827,0.118
	c6.949,0,12.987-5.157,13.906-12.233c4.101-31.578,6.27-61.17,6.27-85.575c0-21.224-5.669-39.167-16.858-53.521
	C330.158,146.822,332.083,139.326,332.083,131.385z M267.131,143.893c-2.658-3.457-6.77-5.483-11.131-5.483
	s-8.473,2.026-11.131,5.483c-3.934,5.118-9.879,8.052-16.311,8.052c-11.338,0-20.561-9.223-20.561-20.561
	c0-4.944,1.786-9.723,5.031-13.461c3.333-3.84,4.33-9.182,2.605-13.965c-1.724-4.784-5.9-8.26-10.915-9.091
	c-9.946-1.646-17.166-10.174-17.166-20.276c0-11.338,9.223-20.561,20.561-20.561c2.839,0,5.592,0.57,8.181,1.696
	c3.962,1.721,8.494,1.523,12.288-0.535c3.797-2.058,6.433-5.75,7.152-10.007c1.671-9.911,10.193-17.104,20.265-17.104
	s18.594,7.193,20.265,17.104c0.719,4.258,3.356,7.95,7.152,10.007c3.797,2.058,8.329,2.256,12.288,0.535
	c2.588-1.125,5.341-1.695,8.181-1.695c11.338,0,20.561,9.223,20.561,20.561c0,10.104-7.22,18.63-17.166,20.276
	c-5.017,0.83-9.191,4.308-10.915,9.091c-1.726,4.784-0.729,10.125,2.604,13.965c3.245,3.738,5.031,8.517,5.031,13.461
	c0,11.338-9.223,20.561-20.561,20.561C277.009,151.946,271.066,149.011,267.131,143.893z"/>
<g>
</g>
<g>
</g>
<g>
</g>
<g>
</g>
<g>
</g>
<g>
</g>
<g>
</g>
<g>
</g>
<g>
</g>
<g>
</g>
<g>
</g>
<g>
</g>
<g>
</g>
<g>
</g>
<g>
</g>
</svg>
